<mxfile host="app.diagrams.net" agent="Mozilla/5.0 (Windows NT 10.0; Win64; x64) AppleWebKit/537.36 (KHTML, like Gecko) Chrome/134.0.0.0 Safari/537.36" version="26.1.1">
  <diagram id="C5RBs43oDa-KdzZeNtuy" name="Page-1">
    <mxGraphModel dx="2427" dy="1789" grid="1" gridSize="10" guides="1" tooltips="1" connect="1" arrows="1" fold="1" page="1" pageScale="1" pageWidth="827" pageHeight="1169" math="0" shadow="0">
      <root>
        <mxCell id="WIyWlLk6GJQsqaUBKTNV-0" />
        <mxCell id="WIyWlLk6GJQsqaUBKTNV-1" parent="WIyWlLk6GJQsqaUBKTNV-0" />
        <mxCell id="SJGNePFqjwrhQGRTZLTp-9" value="" style="edgeStyle=none;curved=1;rounded=0;orthogonalLoop=1;jettySize=auto;html=1;fontSize=12;startSize=8;endSize=8;" parent="WIyWlLk6GJQsqaUBKTNV-1" source="SJGNePFqjwrhQGRTZLTp-0" target="SJGNePFqjwrhQGRTZLTp-8" edge="1">
          <mxGeometry relative="1" as="geometry" />
        </mxCell>
        <mxCell id="SJGNePFqjwrhQGRTZLTp-0" value="" style="ellipse;whiteSpace=wrap;html=1;aspect=fixed;" parent="WIyWlLk6GJQsqaUBKTNV-1" vertex="1">
          <mxGeometry x="-130" y="-33.129999999999995" width="186.25" height="186.25" as="geometry" />
        </mxCell>
        <mxCell id="SJGNePFqjwrhQGRTZLTp-18" value="" style="edgeStyle=none;curved=1;rounded=0;orthogonalLoop=1;jettySize=auto;html=1;fontSize=12;startSize=8;endSize=8;" parent="WIyWlLk6GJQsqaUBKTNV-1" source="SJGNePFqjwrhQGRTZLTp-8" target="SJGNePFqjwrhQGRTZLTp-17" edge="1">
          <mxGeometry relative="1" as="geometry" />
        </mxCell>
        <mxCell id="SJGNePFqjwrhQGRTZLTp-8" value="" style="whiteSpace=wrap;html=1;" parent="WIyWlLk6GJQsqaUBKTNV-1" vertex="1">
          <mxGeometry x="300" y="-10" width="240" height="130" as="geometry" />
        </mxCell>
        <mxCell id="SJGNePFqjwrhQGRTZLTp-14" value="&lt;h1 style=&quot;margin-top: 0px;&quot;&gt;Cadastrar Usuário&amp;nbsp;&lt;/h1&gt;" style="text;html=1;whiteSpace=wrap;overflow=hidden;rounded=0;" parent="WIyWlLk6GJQsqaUBKTNV-1" vertex="1">
          <mxGeometry x="360" y="30" width="130" height="120" as="geometry" />
        </mxCell>
        <mxCell id="SJGNePFqjwrhQGRTZLTp-25" value="" style="edgeStyle=none;curved=1;rounded=0;orthogonalLoop=1;jettySize=auto;html=1;fontSize=12;startSize=8;endSize=8;" parent="WIyWlLk6GJQsqaUBKTNV-1" source="SJGNePFqjwrhQGRTZLTp-17" target="SJGNePFqjwrhQGRTZLTp-24" edge="1">
          <mxGeometry relative="1" as="geometry" />
        </mxCell>
        <mxCell id="SJGNePFqjwrhQGRTZLTp-27" value="" style="edgeStyle=none;curved=1;rounded=0;orthogonalLoop=1;jettySize=auto;html=1;fontSize=12;startSize=8;endSize=8;" parent="WIyWlLk6GJQsqaUBKTNV-1" source="SJGNePFqjwrhQGRTZLTp-17" target="SJGNePFqjwrhQGRTZLTp-26" edge="1">
          <mxGeometry relative="1" as="geometry" />
        </mxCell>
        <mxCell id="SJGNePFqjwrhQGRTZLTp-17" value="" style="rhombus;whiteSpace=wrap;html=1;" parent="WIyWlLk6GJQsqaUBKTNV-1" vertex="1">
          <mxGeometry x="665" y="-60" width="360" height="230" as="geometry" />
        </mxCell>
        <mxCell id="SJGNePFqjwrhQGRTZLTp-19" value="&lt;h1 style=&quot;margin-top: 0px;&quot;&gt;Deseja registrar movimentações financeiras?&lt;/h1&gt;" style="text;html=1;whiteSpace=wrap;overflow=hidden;rounded=0;" parent="WIyWlLk6GJQsqaUBKTNV-1" vertex="1">
          <mxGeometry x="752.5" y="5" width="200" height="90" as="geometry" />
        </mxCell>
        <mxCell id="SJGNePFqjwrhQGRTZLTp-24" value="" style="whiteSpace=wrap;html=1;" parent="WIyWlLk6GJQsqaUBKTNV-1" vertex="1">
          <mxGeometry x="1115" y="-0.01" width="250" height="120" as="geometry" />
        </mxCell>
        <mxCell id="SJGNePFqjwrhQGRTZLTp-56" style="edgeStyle=none;curved=1;rounded=0;orthogonalLoop=1;jettySize=auto;html=1;fontSize=12;startSize=8;endSize=8;entryX=0;entryY=0.5;entryDx=0;entryDy=0;" parent="WIyWlLk6GJQsqaUBKTNV-1" source="SJGNePFqjwrhQGRTZLTp-26" target="SJGNePFqjwrhQGRTZLTp-59" edge="1">
          <mxGeometry relative="1" as="geometry">
            <mxPoint x="2303.1745256696427" y="520" as="targetPoint" />
          </mxGeometry>
        </mxCell>
        <mxCell id="SJGNePFqjwrhQGRTZLTp-26" value="" style="whiteSpace=wrap;html=1;" parent="WIyWlLk6GJQsqaUBKTNV-1" vertex="1">
          <mxGeometry x="710" y="330" width="270" height="120" as="geometry" />
        </mxCell>
        <mxCell id="SJGNePFqjwrhQGRTZLTp-28" value="Não" style="text;html=1;align=center;verticalAlign=middle;whiteSpace=wrap;rounded=0;" parent="WIyWlLk6GJQsqaUBKTNV-1" vertex="1">
          <mxGeometry x="850" y="200" width="60" height="30" as="geometry" />
        </mxCell>
        <mxCell id="SJGNePFqjwrhQGRTZLTp-29" value="Sim" style="text;html=1;align=center;verticalAlign=middle;whiteSpace=wrap;rounded=0;" parent="WIyWlLk6GJQsqaUBKTNV-1" vertex="1">
          <mxGeometry x="1025" y="15" width="60" height="30" as="geometry" />
        </mxCell>
        <mxCell id="SJGNePFqjwrhQGRTZLTp-30" value="&lt;h1 style=&quot;margin-top: 0px;&quot;&gt;Acessar os conteúdos da aplicação&lt;/h1&gt;" style="text;html=1;whiteSpace=wrap;overflow=hidden;rounded=0;" parent="WIyWlLk6GJQsqaUBKTNV-1" vertex="1">
          <mxGeometry x="765" y="340" width="175" height="110" as="geometry" />
        </mxCell>
        <mxCell id="SJGNePFqjwrhQGRTZLTp-33" value="" style="edgeStyle=none;curved=1;rounded=0;orthogonalLoop=1;jettySize=auto;html=1;fontSize=12;startSize=8;endSize=8;" parent="WIyWlLk6GJQsqaUBKTNV-1" source="SJGNePFqjwrhQGRTZLTp-31" target="SJGNePFqjwrhQGRTZLTp-32" edge="1">
          <mxGeometry relative="1" as="geometry" />
        </mxCell>
        <mxCell id="SJGNePFqjwrhQGRTZLTp-31" value="&lt;h1 style=&quot;margin-top: 0px;&quot;&gt;Informar Entrada e Saída de valores.&lt;/h1&gt;" style="text;html=1;whiteSpace=wrap;overflow=hidden;rounded=0;" parent="WIyWlLk6GJQsqaUBKTNV-1" vertex="1">
          <mxGeometry x="1135" width="210" height="120" as="geometry" />
        </mxCell>
        <mxCell id="SJGNePFqjwrhQGRTZLTp-37" value="" style="edgeStyle=none;curved=1;rounded=0;orthogonalLoop=1;jettySize=auto;html=1;fontSize=12;startSize=8;endSize=8;" parent="WIyWlLk6GJQsqaUBKTNV-1" source="SJGNePFqjwrhQGRTZLTp-32" target="SJGNePFqjwrhQGRTZLTp-36" edge="1">
          <mxGeometry relative="1" as="geometry" />
        </mxCell>
        <mxCell id="SJGNePFqjwrhQGRTZLTp-32" value="" style="whiteSpace=wrap;html=1;" parent="WIyWlLk6GJQsqaUBKTNV-1" vertex="1">
          <mxGeometry x="1515" width="235" height="120" as="geometry" />
        </mxCell>
        <mxCell id="SJGNePFqjwrhQGRTZLTp-34" value="&lt;h1 style=&quot;margin-top: 0px;&quot;&gt;Receber dados de como se posicionar no mercado&lt;/h1&gt;" style="text;html=1;whiteSpace=wrap;overflow=hidden;rounded=0;" parent="WIyWlLk6GJQsqaUBKTNV-1" vertex="1">
          <mxGeometry x="1550" y="-5" width="180" height="120" as="geometry" />
        </mxCell>
        <mxCell id="SJGNePFqjwrhQGRTZLTp-45" value="" style="edgeStyle=none;curved=1;rounded=0;orthogonalLoop=1;jettySize=auto;html=1;fontSize=12;startSize=8;endSize=8;" parent="WIyWlLk6GJQsqaUBKTNV-1" source="SJGNePFqjwrhQGRTZLTp-36" target="SJGNePFqjwrhQGRTZLTp-44" edge="1">
          <mxGeometry relative="1" as="geometry" />
        </mxCell>
        <mxCell id="SJGNePFqjwrhQGRTZLTp-49" value="" style="edgeStyle=none;curved=1;rounded=0;orthogonalLoop=1;jettySize=auto;html=1;fontSize=12;startSize=8;endSize=8;" parent="WIyWlLk6GJQsqaUBKTNV-1" source="SJGNePFqjwrhQGRTZLTp-36" target="SJGNePFqjwrhQGRTZLTp-48" edge="1">
          <mxGeometry relative="1" as="geometry" />
        </mxCell>
        <mxCell id="SJGNePFqjwrhQGRTZLTp-36" value="" style="rhombus;whiteSpace=wrap;html=1;" parent="WIyWlLk6GJQsqaUBKTNV-1" vertex="1">
          <mxGeometry x="1960" y="-50" width="280" height="220" as="geometry" />
        </mxCell>
        <mxCell id="SJGNePFqjwrhQGRTZLTp-38" value="&lt;h1 style=&quot;margin-top: 0px;&quot;&gt;Aceitar as recomendações ?&lt;/h1&gt;" style="text;html=1;whiteSpace=wrap;overflow=hidden;rounded=0;" parent="WIyWlLk6GJQsqaUBKTNV-1" vertex="1">
          <mxGeometry x="2010" y="15" width="210" height="110" as="geometry" />
        </mxCell>
        <mxCell id="SJGNePFqjwrhQGRTZLTp-39" value="Sim" style="text;html=1;align=center;verticalAlign=middle;whiteSpace=wrap;rounded=0;" parent="WIyWlLk6GJQsqaUBKTNV-1" vertex="1">
          <mxGeometry x="2230" y="15" width="60" height="30" as="geometry" />
        </mxCell>
        <mxCell id="SJGNePFqjwrhQGRTZLTp-40" value="Não" style="text;html=1;align=center;verticalAlign=middle;whiteSpace=wrap;rounded=0;" parent="WIyWlLk6GJQsqaUBKTNV-1" vertex="1">
          <mxGeometry x="2020" y="150" width="60" height="30" as="geometry" />
        </mxCell>
        <mxCell id="SJGNePFqjwrhQGRTZLTp-54" style="edgeStyle=none;curved=1;rounded=0;orthogonalLoop=1;jettySize=auto;html=1;entryX=0.5;entryY=1;entryDx=0;entryDy=0;fontSize=12;startSize=8;endSize=8;" parent="WIyWlLk6GJQsqaUBKTNV-1" source="SJGNePFqjwrhQGRTZLTp-44" target="SJGNePFqjwrhQGRTZLTp-48" edge="1">
          <mxGeometry relative="1" as="geometry" />
        </mxCell>
        <mxCell id="SJGNePFqjwrhQGRTZLTp-44" value="" style="whiteSpace=wrap;html=1;" parent="WIyWlLk6GJQsqaUBKTNV-1" vertex="1">
          <mxGeometry x="1920" y="270" width="360" height="110" as="geometry" />
        </mxCell>
        <mxCell id="SJGNePFqjwrhQGRTZLTp-46" value="&lt;h1 style=&quot;margin-top: 0px;&quot;&gt;Informar Entrada e Saída de Valores&lt;/h1&gt;" style="text;html=1;whiteSpace=wrap;overflow=hidden;rounded=0;" parent="WIyWlLk6GJQsqaUBKTNV-1" vertex="1">
          <mxGeometry x="1990" y="290" width="270" height="120" as="geometry" />
        </mxCell>
        <mxCell id="SJGNePFqjwrhQGRTZLTp-60" style="edgeStyle=none;curved=1;rounded=0;orthogonalLoop=1;jettySize=auto;html=1;entryX=0.5;entryY=0;entryDx=0;entryDy=0;fontSize=12;startSize=8;endSize=8;" parent="WIyWlLk6GJQsqaUBKTNV-1" source="SJGNePFqjwrhQGRTZLTp-48" target="SJGNePFqjwrhQGRTZLTp-59" edge="1">
          <mxGeometry relative="1" as="geometry" />
        </mxCell>
        <mxCell id="SJGNePFqjwrhQGRTZLTp-48" value="" style="whiteSpace=wrap;html=1;" parent="WIyWlLk6GJQsqaUBKTNV-1" vertex="1">
          <mxGeometry x="2400" y="-27.5" width="250" height="175" as="geometry" />
        </mxCell>
        <mxCell id="SJGNePFqjwrhQGRTZLTp-50" value="&lt;h1 style=&quot;margin-top: 0px;&quot;&gt;Acompanhar as informações e acompanhar as dicas&amp;nbsp;&lt;/h1&gt;" style="text;html=1;whiteSpace=wrap;overflow=hidden;rounded=0;" parent="WIyWlLk6GJQsqaUBKTNV-1" vertex="1">
          <mxGeometry x="2450" y="5" width="180" height="120" as="geometry" />
        </mxCell>
        <mxCell id="SJGNePFqjwrhQGRTZLTp-59" value="" style="ellipse;fillColor=strokeColor;html=1;" parent="WIyWlLk6GJQsqaUBKTNV-1" vertex="1">
          <mxGeometry x="2530" y="430" width="180" height="170" as="geometry" />
        </mxCell>
      </root>
    </mxGraphModel>
  </diagram>
</mxfile>
